# xmcd
#
# Track frame offsets:
#	150
#	17384
#	30755
#	49933
#	65019
#	85342
#	100202
#	120295
#	137471
#	151029
#	167009
#	180531
#	196751
#	210046
#	227528
#	249045
#	261970
#
# Disc length: 3704 seconds
#
# Revision: 0
# Processed by: cddbd v1.5.2PL0 Copyright (c) Steve Scherf et al.
# Submitted via: EasyCDDAExtractor 2010.6.0.0
#
DISCID=bc0e7611
DTITLE=Riana Van Wyk - Spore
DYEAR=1900
DGENRE=Country
TTITLE0=Lief Vir Jou
TTITLE1=Hoela Hey
TTITLE2=Ek Roep Jou Naam
TTITLE3=Grootmeneer
TTITLE4=Abba Medley
TTITLE5=Droomman
TTITLE6=Under The Man In The Moon
TTITLE7=Unchained Medoly
TTITLE8=Diva
TTITLE9=Al Is Dit Winter
TTITLE10=Breaking Up Is Hard To Do
TTITLE11=Leentjiesklip
TTITLE12=You're My World
TTITLE13=Reach
TTITLE14=Weer Begin
TTITLE15=Hoela Hey (Remix)
TTITLE16=Where Your Road Leads
EXTD=
EXTT0=
EXTT1=
EXTT2=
EXTT3=
EXTT4=
EXTT5=
EXTT6=
EXTT7=
EXTT8=
EXTT9=
EXTT10=
EXTT11=
EXTT12=
EXTT13=
EXTT14=
EXTT15=
EXTT16=
PLAYORDER=
